<?xml version="1.0" standalone="no"?><!DOCTYPE svg PUBLIC "-//W3C//DTD SVG 1.1//EN" "http://www.w3.org/Graphics/SVG/1.1/DTD/svg11.dtd"><svg t="1769154311532" class="icon" viewBox="0 0 1024 1024" version="1.1" xmlns="http://www.w3.org/2000/svg" p-id="6266" xmlns:xlink="http://www.w3.org/1999/xlink" width="200" height="200"><path d="M633.344 399.872h292.864c11.264 0.512 22.016 5.12 30.208 13.312 7.68 8.192 12.288 19.456 11.776 30.72V926.72c0.512 11.264-4.096 22.528-11.776 30.72-7.68 8.192-18.944 13.312-30.208 13.312h-501.76c-11.264-0.512-22.016-5.12-30.208-13.312-7.68-8.192-12.288-19.456-11.776-30.72v-307.2H89.088c-11.264-0.512-22.016-5.12-30.208-13.312-7.68-8.192-12.288-19.456-11.776-30.72V92.672c-0.512-11.264 4.096-22.528 11.776-30.72 7.68-8.192 18.944-13.312 30.208-13.312h502.784c11.264 0.512 22.016 5.12 30.208 13.312 7.68 8.192 12.288 19.456 11.776 30.72v307.2zM89.088 576h502.784V92.672H89.088v483.328z m572.416-14.848l-92.16 250.88h40.96l22.528-64.512h102.4l22.528 64.512h39.424l-92.672-250.88h-43.008z m-19.968 153.6l39.936-113.664 42.496 113.664h-82.432zM322.56 151.04h31.744V215.04H476.16v169.472h-31.744v-19.968H354.304v117.76h-30.208v-117.76H236.544v19.968H204.8V215.04h119.296L322.56 151.04zM236.544 331.776h87.04V247.808h-87.04v83.968z m117.76 0h90.112V247.808H354.304v83.968z m0 0" p-id="6267"></path></svg>