<?xml version="1.0" standalone="no"?><!DOCTYPE svg PUBLIC "-//W3C//DTD SVG 1.1//EN" "http://www.w3.org/Graphics/SVG/1.1/DTD/svg11.dtd"><svg t="1769148541803" class="icon" viewBox="0 0 1170 1024" version="1.1" xmlns="http://www.w3.org/2000/svg" p-id="7388" xmlns:xlink="http://www.w3.org/1999/xlink" width="228.515625" height="200"><path d="M1056.810105 0h-942.395988C71.220389 0 35.880787 35.339602 35.880787 78.533329v785.330322c0 43.192736 35.339602 78.533329 78.53333 78.533329h667.531318v-78.533329H153.678799c-23.559404 0-39.265674-19.633332-39.265674-39.266665V117.799994c0-19.633332 15.706269-39.266665 39.265674-39.266665h863.864642c23.559404 0 39.265674 19.633332 39.265673 39.266665v510.464659h78.53333V78.533329c0-43.193728-35.340593-78.533329-78.53333-78.533329z" fill="#8A8A8A" p-id="7389"></path><path d="M181.167248 757.843854c15.706269 15.706269 39.265674 15.706269 54.972935 0L401.058985 592.925052l137.433327 137.432335c3.926072 3.927063 3.926072 3.927063 7.853134 3.927063 15.706269 7.853135 31.41353 7.853135 47.1198-3.927063l388.738593-388.738593c15.706269-15.706269 15.706269-39.266665 0-54.972934-15.706269-15.706269-39.266665-15.706269-54.972934 0L565.978779 647.897986 428.545452 506.538587l-3.926072-3.927063c-15.706269-11.780198-35.339602-11.780198-51.045871 3.927063l-196.333324 196.332333c-11.780198 15.706269-11.780198 39.266665 3.927063 54.972934zM924.530925 1009.149121c7.853135 7.854126 15.706269 11.780198 27.486467 11.780197 11.780198 0 19.633332-3.926072 27.486467-11.780197l109.94686-109.945869c15.706269-15.706269 15.706269-39.266665 0-54.972934-15.707261-15.706269-39.266665-15.706269-54.973926 0l-43.192736 43.192737V643.970923c0-19.633332-15.706269-39.266665-39.266665-39.266665s-39.266665 15.707261-39.266665 39.266665v243.452132l-47.119799-47.1198c-15.706269-15.706269-39.266665-15.706269-54.972934 0-15.706269 15.707261-15.706269 39.266665 0 54.973926l113.872931 113.87194zM353.681478 157.066659c-67.080222 0-121.468359 54.376243-121.468358 121.468359 0 67.079231 54.388137 121.468359 121.469349 121.468358 67.091125 0 121.467367-54.389128 121.467368-121.46935 0-67.093107-54.376243-121.467367-121.468359-121.467367z m0 176.128079c-30.18942 0-54.660712-24.472283-54.660712-54.65972s24.471292-54.661703 54.660712-54.661703c30.188429 0 54.660712 24.472283 54.660712 54.661703s-24.472283 54.659721-54.660712 54.65972z" fill="#8A8A8A" p-id="7390"></path></svg>